HIERARCHY
ROOT Hips
{
	OFFSET 0.00000 0.00000 0.00000
	CHANNELS 6 Xposition Yposition Zposition Zrotation Yrotation Xrotation 
	JOINT LHipJoint
	{
		OFFSET 0 0 0
		CHANNELS 3 Zrotation Yrotation Xrotation
		JOINT LeftUpLeg
		{
			OFFSET 1.40252 -1.71424 0.59123
			CHANNELS 3 Zrotation Yrotation Xrotation
			JOINT LeftLeg
			{
				OFFSET 2.50071 -6.87065 0.00000
				CHANNELS 3 Zrotation Yrotation Xrotation
				JOINT LeftFoot
				{
					OFFSET 2.50834 -6.89162 0.00000
					CHANNELS 3 Zrotation Yrotation Xrotation
					JOINT LeftToeBase
					{
						OFFSET 0.21528 -0.59149 1.64448
						CHANNELS 3 Zrotation Yrotation Xrotation
						End Site
						{
							OFFSET 0.00000 -0.00000 0.87921
						}
					}
				}
			}
		}
	}
	JOINT RHipJoint
	{
		OFFSET 0 0 0
		CHANNELS 3 Zrotation Yrotation Xrotation
		JOINT RightUpLeg
		{
			OFFSET -1.53651 -1.71424 0.59123
			CHANNELS 3 Zrotation Yrotation Xrotation
			JOINT RightLeg
			{
				OFFSET -2.45783 -6.75285 0.00000
				CHANNELS 3 Zrotation Yrotation Xrotation
				JOINT RightFoot
				{
					OFFSET -2.51921 -6.92147 0.00000
					CHANNELS 3 Zrotation Yrotation Xrotation
					JOINT RightToeBase
					{
						OFFSET -0.21777 -0.59831 1.59676
						CHANNELS 3 Zrotation Yrotation Xrotation
						End Site
						{
							OFFSET -0.00000 -0.00000 0.85779
						}
					}
				}
			}
		}
	}
	JOINT LowerBack
	{
		OFFSET 0 0 0
		CHANNELS 3 Zrotation Yrotation Xrotation
		JOINT Spine
		{
			OFFSET 0.02212 2.07622 0.03776
			CHANNELS 3 Zrotation Yrotation Xrotation
			JOINT Spine1
			{
				OFFSET -0.00949 2.08009 -0.00123
				CHANNELS 3 Zrotation Yrotation Xrotation
				JOINT Neck
				{
					OFFSET 0 0 0
					CHANNELS 3 Zrotation Yrotation Xrotation
					JOINT Neck1
					{
						OFFSET 0.00288 1.67184 0.11155
						CHANNELS 3 Zrotation Yrotation Xrotation
						JOINT Head
						{
							OFFSET -0.02412 1.66997 -0.22040
							CHANNELS 3 Zrotation Yrotation Xrotation
							End Site
							{
								OFFSET -0.01026 1.69043 -0.08683
							}
						}
					}
				}
				JOINT LeftShoulder
				{
					OFFSET 0 0 0
					CHANNELS 3 Zrotation Yrotation Xrotation
					JOINT LeftArm
					{
						OFFSET 3.97941 0.74048 0.81462
						CHANNELS 3 Zrotation Yrotation Xrotation
						JOINT LeftForeArm
						{
							OFFSET 5.01834 -0.00000 -0.00000
							CHANNELS 3 Zrotation Yrotation Xrotation
							JOINT LeftHand
							{
								OFFSET 3.48690 -0.00000 0.00000
								CHANNELS 3 Zrotation Yrotation Xrotation
								JOINT LeftFingerBase
								{
									OFFSET 0 0 0
									CHANNELS 3 Zrotation Yrotation Xrotation
									JOINT LeftHandIndex1
									{
										OFFSET 0.76799 -0.00000 0.00000
										CHANNELS 3 Zrotation Yrotation Xrotation
										End Site
										{
											OFFSET 0.61917 -0.00000 0.00000
										}
									}
								}
								JOINT LThumb
								{
									OFFSET 0 0 0
									CHANNELS 3 Zrotation Yrotation Xrotation
									End Site
									{
										OFFSET 0.62863 -0.00000 0.62863
									}
								}
							}
						}
					}
				}
				JOINT RightShoulder
				{
					OFFSET 0 0 0
					CHANNELS 3 Zrotation Yrotation Xrotation
					JOINT RightArm
					{
						OFFSET -3.88702 1.02123 0.44091
						CHANNELS 3 Zrotation Yrotation Xrotation
						JOINT RightForeArm
						{
							OFFSET -4.70164 -0.00000 0.00000
							CHANNELS 3 Zrotation Yrotation Xrotation
							JOINT RightHand
							{
								OFFSET -3.49911 -0.00000 0.00000
								CHANNELS 3 Zrotation Yrotation Xrotation
								JOINT RightFingerBase
								{
									OFFSET 0 0 0
									CHANNELS 3 Zrotation Yrotation Xrotation
									JOINT RightHandIndex1
									{
										OFFSET -0.73933 -0.00000 0.00000
										CHANNELS 3 Zrotation Yrotation Xrotation
										End Site
										{
											OFFSET -0.59607 -0.00000 0.00000
										}
									}
								}
								JOINT RThumb
								{
									OFFSET 0 0 0
									CHANNELS 3 Zrotation Yrotation Xrotation
									End Site
									{
										OFFSET -0.60517 -0.00000 0.60517
									}
								}
							}
						}
					}
				}
			}
		}
	}
}
MOTION
Frames: 11
Frame Time: 0.0166666
-3.3019 17.5928 -2.1359 174.3750 108.6980 179.7820 0.0000 0.0000 0.0000 -16.0916 5.2200 -32.5676 6.8573 15.2105 48.3326 0.0018 -3.6939 -2.6683 0.0948 -1.9853 -5.4651 0.0000 0.0000 0.0000 22.0530 7.9777 -17.7823 -2.6867 -10.1698 29.5284 -0.3501 0.3685 -11.0528 -0.0503 1.4469 -3.9793 7.9934 -1.0963 -2.3870 0.5296 -1.6303 -0.7962 -3.9722 -0.8173 0.3070 6.4393 6.8835 -0.7281 -6.2718 9.6385 8.8450 -2.8633 4.8269 3.7467 -0.0000 -0.0000 0.0000 -70.8510 -28.6077 50.0310 113.9085 -57.7259 -80.5473 -0.0000 -0.0000 5.7066 23.3659 66.7722 21.6537 -7.1250 0.0000 -0.0000 -118.2746 -76.4648 131.1130 -0.0000 -0.0000 0.0000 83.4959 -31.3225 43.7100 -112.7295 57.9550 -79.5492 0.0000 0.0000 25.2900 -22.7302 8.4747 -3.5329 7.1250 -0.0000 -0.0000 2.9918 -20.8088 1.7362
-3.3285 17.5334 -2.1631 175.2530 108.9320 180.5690 0.0000 0.0000 0.0000 -15.4926 4.3016 -33.3563 7.3196 15.5952 50.0731 -0.0582 -5.1795 -1.2242 0.2879 -3.4505 -9.5356 0.0000 0.0000 0.0000 22.2272 7.7974 -16.5144 -2.3392 -9.5394 27.4978 -0.4862 -0.2479 -13.2653 -0.0142 0.7684 -2.1117 8.0620 -1.3280 -2.9932 0.4105 -1.9927 -0.8904 -4.1567 -0.9938 0.4963 6.4912 7.2149 -0.5234 -6.3828 10.0922 8.6171 -2.8958 5.0537 3.6738 0.0000 0.0000 0.0000 -68.6611 -26.3681 51.1507 101.9332 -59.4550 -70.3155 -0.0000 -0.0000 8.6106 24.6395 64.6648 22.5167 -7.1250 0.0000 -0.0000 -114.0926 -77.8877 125.8311 0.0000 0.0000 0.0000 83.1790 -29.7606 44.9331 -111.3108 58.2125 -78.3449 0.0000 0.0000 24.9985 -22.1130 8.6434 -3.4943 7.1250 -0.0000 -0.0000 3.4407 -20.6695 2.0083
-3.4295 17.4434 -2.2382 177.2030 111.3080 182.5300 0.0000 0.0000 0.0000 -14.9376 4.3275 -34.6451 7.7530 15.9346 51.6682 -0.0992 -7.2039 -2.2328 1.4404 -7.5875 -21.4681 0.0000 0.0000 0.0000 21.7272 9.4281 -16.7722 -2.3553 -9.5699 27.5950 -0.6108 0.0119 -14.7654 -0.0031 0.3578 -0.9830 8.1253 -0.9804 -2.3750 0.0267 -1.4537 -1.2914 -4.5586 -0.7668 -0.2084 6.6695 7.5204 -0.4751 -6.3902 10.4937 8.5026 -2.9117 5.2582 3.6687 -0.0000 -0.0000 0.0000 -67.3640 -24.6818 51.3756 87.8088 -59.9819 -58.1025 -0.0000 -0.0000 11.0470 25.6234 63.3201 23.1978 -7.1250 0.0000 -0.0000 -111.2471 -78.8020 122.2269 -0.0000 -0.0000 0.0000 84.0950 -27.8132 45.4463 -109.3111 58.5429 -76.6421 0.0000 0.0000 25.2948 -21.4064 8.7021 -3.3943 7.1250 -0.0000 -0.0000 3.9509 -20.6540 2.3088
-3.5185 17.3593 -2.3541 176.6870 112.9190 182.1410 0.0000 0.0000 0.0000 -13.3283 3.2003 -35.1534 8.2564 16.3046 53.4811 -0.1015 -10.1043 -5.2538 1.8140 -8.4674 -24.1431 0.0000 0.0000 0.0000 21.8543 10.0575 -17.4446 -2.3976 -9.6493 27.8483 -0.6998 0.8483 -15.5389 -0.0001 0.0630 -0.1731 9.2662 -0.9805 -1.9043 -0.0153 -1.4062 -1.5950 -5.2285 -0.7866 -0.8165 6.7435 7.8403 -0.1071 -6.5115 10.9142 7.8825 -2.9653 5.4715 3.4295 0.0000 0.0000 0.0000 -67.4886 -23.6209 49.8880 73.0684 -58.8886 -45.3916 -0.0000 -0.0000 14.9361 26.2873 62.0944 23.5822 -7.1250 0.0000 -0.0000 -107.8494 -79.5786 118.1958 0.0000 0.0000 0.0000 85.3737 -25.9548 45.6583 -107.6444 58.7903 -75.2184 0.0000 0.0000 25.5011 -21.6063 8.5043 -3.3520 7.1250 -0.0000 -0.0000 3.8037 -20.8523 2.2054
-3.6068 17.2857 -2.4818 175.6090 114.6800 181.5330 0.0000 0.0000 0.0000 -11.1948 1.0665 -34.7144 8.8736 16.7257 55.6518 0.0756 -10.2188 -8.3388 1.7466 -8.3171 -23.6815 0.0000 0.0000 0.0000 22.0540 11.0652 -19.2374 -2.6750 -10.1494 29.4620 -0.7514 1.8841 -15.8452 -0.0017 0.2661 -0.7312 10.1317 -0.8799 -2.0672 0.3539 -1.2917 -1.6448 -5.3297 -0.7322 -0.7742 6.6083 8.1767 -0.2271 -6.8468 11.3593 7.3933 -3.0333 5.6766 3.3333 0.0000 0.0000 0.0000 -68.6333 -23.2360 46.6053 61.5532 -56.7098 -35.6365 -0.0000 -0.0000 19.6495 28.0077 59.9167 24.7136 -7.1250 0.0000 -0.0000 -101.6609 -81.0088 110.7118 0.0000 0.0000 0.0000 86.7182 -23.7327 45.0835 -106.0269 59.0068 -73.8334 0.0000 0.0000 26.5006 -21.5830 8.4250 -3.3171 7.1250 -0.0000 -0.0000 3.8193 -20.9386 2.2070
-3.6764 17.2315 -2.5981 173.8800 116.0420 180.2050 0.0000 0.0000 0.0000 -8.5891 -1.9031 -32.6664 9.5409 17.1435 57.9425 0.1998 -9.3759 -9.6679 1.6096 -8.0006 -22.7158 0.0000 0.0000 0.0000 22.5752 11.5294 -21.0240 -3.0156 -10.7203 31.3424 -0.7947 3.0931 -16.0815 -0.0195 0.9021 -2.4795 11.0752 -0.9712 -2.6060 0.8156 -1.5009 -1.4689 -5.3886 -0.8092 -0.3385 6.6788 8.6211 -0.2461 -7.0609 11.9360 6.8856 -3.0938 5.9585 3.2299 -0.0000 0.0000 0.0000 -69.2908 -22.9806 41.6079 55.2044 -54.8904 -30.3831 -0.0000 -0.0000 22.6106 29.9254 59.0609 26.2762 -7.1250 0.0000 -0.0000 -101.7234 -81.8662 109.8802 -0.0000 0.0000 0.0000 88.3213 -21.4981 44.7325 -104.3666 59.2056 -72.4086 0.0000 0.0000 27.4878 -21.3388 8.1388 -3.1656 7.1250 -0.0000 -0.0000 3.9922 -21.2597 2.2784
-3.7565 17.1815 -2.7422 173.2480 117.4990 180.1840 0.0000 0.0000 0.0000 -6.7077 -4.5981 -30.6877 10.4547 17.6577 60.9975 0.3678 -6.5678 -11.0492 1.0267 -6.4454 -18.0824 0.0000 0.0000 0.0000 22.4675 11.4162 -22.9271 -3.2130 -11.0322 32.3886 -0.7860 4.9133 -15.8156 -0.0542 1.5025 -4.1325 11.9073 -1.0371 -3.1832 0.8294 -1.6896 -1.4204 -5.8564 -0.8879 -0.0240 7.1165 8.9674 -0.2644 -6.9940 12.3479 6.4173 -3.1318 6.1726 3.1342 -0.0000 -0.0000 0.0000 -67.9311 -23.2368 35.6793 52.4000 -53.9188 -28.1025 -0.0000 -0.0000 23.8493 29.7344 58.6553 26.0042 -7.1250 0.0000 -0.0000 -98.9673 -81.9993 107.0325 -0.0000 -0.0000 0.0000 90.3097 -19.6799 44.6460 -103.3419 59.3166 -71.5279 0.0000 0.0000 28.8357 -21.0716 8.3924 -3.2186 7.1250 -0.0000 -0.0000 4.1884 -21.0059 2.4150
-3.8352 17.1344 -2.8991 172.2770 119.2680 179.8350 0.0000 0.0000 0.0000 -4.7819 -6.4397 -28.4689 11.3939 18.1225 64.0542 0.4488 -3.4163 -11.9464 0.3961 -4.0408 -11.1916 0.0000 0.0000 0.0000 22.6678 12.5201 -23.9586 -3.2529 -11.0936 32.5963 -0.7672 5.6577 -15.6085 -0.2727 3.3592 -9.2806 12.3493 -0.9201 -3.2615 1.1820 -1.5304 -1.6751 -5.7254 -0.8277 -0.2232 7.5081 9.1318 0.1126 -6.9139 12.5735 6.3743 -3.1801 6.3031 3.0932 -0.0000 -0.0000 0.0000 -65.5529 -23.6827 30.9523 51.4645 -53.5694 -27.3482 -0.0000 -0.0000 24.2057 29.4517 58.3775 25.6792 -7.1250 0.0000 -0.0000 -96.6481 -82.0359 104.6989 -0.0000 -0.0000 0.0000 91.6486 -19.1249 44.3258 -103.7111 59.2776 -71.8453 0.0000 0.0000 29.4269 -21.0951 8.3067 -3.1900 7.1250 -0.0000 -0.0000 4.1705 -21.0957 2.3961
-3.8720 17.1172 -3.0514 170.1640 119.8070 178.2700 0.0000 0.0000 0.0000 -2.6937 -9.0804 -24.9278 11.8205 18.3138 65.4188 0.3866 -1.9519 -11.2304 0.0000 0.0101 0.0278 0.0000 0.0000 0.0000 23.3850 13.2893 -24.3226 -3.2183 -11.0403 32.4158 -0.7741 5.4838 -15.6795 -0.3811 3.9646 -10.9772 13.2237 -0.9757 -4.1742 1.7340 -1.7760 -1.5485 -5.6586 -0.9049 0.3636 7.7121 9.2181 0.1051 -6.9002 12.6840 6.4098 -3.2042 6.3624 3.1319 0.0000 -0.0000 0.0000 -62.3328 -24.8163 27.2167 50.9107 -53.3563 -26.9032 -0.0000 -0.0000 23.5300 28.8948 57.3495 24.9242 -7.1250 0.0000 -0.0000 -88.9715 -82.2044 96.8294 0.0000 -0.0000 0.0000 92.5500 -18.9707 43.8155 -104.8534 59.1497 -72.8267 0.0000 0.0000 29.0202 -21.5010 8.1540 -3.1979 7.1250 -0.0000 -0.0000 3.8749 -21.2335 2.2134
-3.9116 17.1072 -3.2318 168.6690 120.2250 177.1470 0.0000 0.0000 0.0000 -1.4452 -11.2439 -20.7904 11.5982 18.2156 64.7094 0.3006 -0.7399 -10.1212 0.2601 3.2810 9.0620 0.0000 0.0000 0.0000 23.6345 13.6772 -24.5886 -3.1315 -10.9049 31.9598 -0.7348 5.7636 -15.2745 -0.4025 4.0730 -11.2823 13.6559 -0.9302 -4.7242 2.2429 -1.8217 -1.5063 -5.3764 -0.8975 0.7100 7.8011 9.0908 0.0336 -6.9240 12.5122 6.5009 -3.2329 6.2774 3.1715 0.0000 0.0000 0.0000 -59.0875 -26.7865 23.8300 49.2956 -52.7074 -25.6127 -0.0000 -0.0000 22.8239 25.7936 56.4488 21.9378 -7.1250 0.0000 -0.0000 -86.2865 81.3804 -77.5443 0.0000 0.0000 0.0000 92.8736 -19.5486 43.1940 -106.3452 58.9660 -74.1062 0.0000 0.0000 27.9157 -21.7632 7.8213 -3.1097 7.1250 -0.0000 -0.0000 3.6804 -21.5734 2.0735
-3.9571 17.1067 -3.4546 167.3040 120.4460 176.1520 0.0000 0.0000 0.0000 -0.7114 -12.9762 -16.5501 10.8621 17.8669 62.3328 0.3078 -1.5188 -10.0592 0.3632 3.8715 10.7155 0.0000 0.0000 0.0000 23.5395 13.9709 -25.0142 -3.0354 -10.7521 31.4483 -0.6277 6.1967 -14.1455 -0.3635 3.8729 -10.7193 14.1838 -0.9039 -4.9051 2.6180 -1.8165 -1.6743 -5.2712 -0.9014 0.6262 8.0234 8.9198 0.3475 -7.4154 12.3374 6.5400 -3.1191 6.1731 2.8471 -0.0000 0.0000 0.0000 -56.0277 -28.7397 20.8993 47.2505 -51.8245 -23.9952 -0.0000 -0.0000 21.5001 23.6987 56.5237 20.1091 -7.1250 0.0000 -0.0000 -84.7718 80.6145 -75.2282 -0.0000 0.0000 0.0000 92.7063 -20.7386 42.6474 -107.4069 58.8236 -75.0153 0.0000 0.0000 27.4857 -21.9950 7.7340 -3.1114 7.1250 -0.0000 -0.0000 3.5108 -21.6530 1.9713
